<svg width="63" height="63" viewBox="0 0 63 63" fill="none" xmlns="http://www.w3.org/2000/svg">
<path d="M52.9 62.1H9.2C4.1 62.1 0 58 0 52.9V9.20001C0 4.10001 4.1 0 9.2 0H52.9C58 0 62.1 4.10001 62.1 9.20001V52.9C62.1 58 57.9 62.1 52.9 62.1Z" fill="white"/>
<path d="M30.6 20.1C30.6 20.1 36.7 16.4 40.4 14.3C44.1 12.2 46.2 11.5 48.3 11.3C50.4 11.2 52.8 12.3 52.8 12.3L46.1 8.10001C46.1 8.10001 45.2 7.5 42.7 7.8C40.2 8.1 38.9 8.80001 37.3 9.60001C35.7 10.5 25 16.8 25 16.8L30.6 20.1Z" fill="#231815"/>
<path d="M46.5996 17.3004C46.5996 17.3004 49.6996 21.6004 47.2996 29.2004C44.8996 36.8004 39.2996 41.1004 38.8996 41.4004C38.5996 41.7004 35.0996 43.7004 35.0996 43.7004L35.1996 49.7004C35.1996 49.7004 46.3996 45.8004 51.0996 35.0004C55.2996 25.5004 52.5996 20.4004 50.4996 18.2004C49.2996 16.9004 46.5996 17.3004 46.5996 17.3004Z" fill="#231815"/>
<path d="M30.6 49.5996L25 46.2996V16.8996L30.6 20.0996V49.5996Z" fill="#231815"/>
<path d="M13.4999 41L7.8999 37.6V8.3L13.3999 11.4L13.4999 41Z" fill="#231815"/>
<path d="M7.89994 37.6C7.89994 37.6 6.49995 50 16.5999 54.5C22.3999 57.1 26.6999 55.6 28.6999 53.6C30.2999 52 30.4999 49.6 30.4999 49.6L24.8999 46.2C24.8999 46.2 24.8999 47.4 23.9999 48.3C22.9999 49.4 21.3999 50.5 17.7999 48.7C13.1999 46.3 13.3999 41 13.3999 41L7.89994 37.6Z" fill="#231815"/>
<path d="M13.3999 11.4L17.8999 9.10001L12.7999 6.3L7.8999 8.3L13.3999 11.4Z" fill="#231815"/>
</svg>
